<?xml version="1.0" encoding="UTF-8" standalone="no"?>
<svg
        xmlns:dc="http://purl.org/dc/elements/1.1/"
        xmlns:cc="http://creativecommons.org/ns#"
        xmlns:rdf="http://www.w3.org/1999/02/22-rdf-syntax-ns#"
        xmlns:sodipodi="http://sodipodi.sourceforge.net/DTD/sodipodi-0.dtd"
        xmlns:inkscape="http://www.inkscape.org/namespaces/inkscape"
        xmlns="http://www.w3.org/2000/svg"
        width="80"
        height="80"
        version="1.1"
        viewBox="0 0 21.167 21.167"
        id="svg25"
        sodipodi:docname="pluginIcon.svg"
        inkscape:export-filename="C:\Users\Markus\Documents\Intellij\mbed-os-wizard\src\main\resources\icons\pluginFolder_16x16.png"
        inkscape:export-xdpi="19.200001"
        inkscape:export-ydpi="19.200001"
        inkscape:version="1.0 (4035a4fb49, 2020-05-01)">
  <sodipodi:namedview
          inkscape:snap-global="false"
          inkscape:document-rotation="0"
          pagecolor="#ffffff"
          bordercolor="#666666"
          borderopacity="1"
          objecttolerance="10"
          gridtolerance="10"
          guidetolerance="10"
          inkscape:pageopacity="0"
          inkscape:pageshadow="2"
          inkscape:window-width="1920"
          inkscape:window-height="1017"
          id="namedview27"
          showgrid="false"
          inkscape:zoom="5.7489898"
          inkscape:cx="33.106011"
          inkscape:cy="59.930968"
          inkscape:window-x="-8"
          inkscape:window-y="-8"
          inkscape:window-maximized="1"
          inkscape:current-layer="svg25"/>
  <defs
          id="defs15">
    <linearGradient
            id="linearGradient861"
            x1="11.247"
            x2="-6.4332"
            y1="10.611"
            y2="-32.394"
            gradientUnits="userSpaceOnUse"
            spreadMethod="reflect">
      <stop
              stop-color="#0ff"
              offset="0"
              id="stop2"/>
      <stop
              offset="1"
              id="stop4"/>
    </linearGradient>
    <mask
            id="mask-powermask-path-effect894"
            maskUnits="userSpaceOnUse">
      <path
              id="mask-powermask-path-effect894_box"
              d="m-1-1h23.167v23.167h-23.167z"
              fill="#fff"/>
      <g
              transform="translate(-.11612)"
              aria-label="Mb"
              id="g12">
        <path
                d="m3.5968 5.1799 2.9417 5.7268 2.9417-5.7268h1.827v11.271h-1.4167v-4.3894l0.1316-4.3971-2.9495 5.3165h-1.0838l-2.934-5.2856 0.1316 4.3661v4.3894h-1.4167v-11.271z"
                stroke-width=".26458"
                style="font-variant-caps:normal;font-variant-east-asian:normal;font-variant-ligatures:normal;font-variant-numeric:normal"
                id="path8"/>
        <path
                d="m19.629 12.666q0 0.99864-0.18579 1.7418-0.17805 0.73543-0.53415 1.2231-0.34836 0.4877-0.85929 0.73543-0.51093 0.23998-1.1689 0.23998-0.70446 0-1.1922-0.29417-0.47996-0.29417-0.8051-0.85155l-0.06967 0.99089h-1.2464v-11.891h1.3625v4.4358q0.32514-0.51867 0.79736-0.79736 0.47222-0.27869 1.138-0.27869 0.66576 0 1.1767 0.23224 0.51867 0.23224 0.86703 0.71995 0.3561 0.47996 0.53415 1.2309 0.18579 0.75091 0.18579 1.7805zm-1.3625-0.78188q0-0.69672-0.0929-1.2077-0.08516-0.51867-0.29417-0.85929-0.20128-0.34062-0.5419-0.51093-0.33288-0.17031-0.82832-0.17031-0.58834 0-0.97541 0.32514-0.37933 0.32514-0.60383 0.82058v3.9868q0.10838 0.23998 0.25546 0.449 0.15483 0.20902 0.34836 0.36384 0.20128 0.14709 0.44126 0.23224 0.24772 0.08516 0.54964 0.08516 0.9367 0 1.3393-0.65802 0.40255-0.66576 0.40255-2.0747z"
                stroke-width=".26458"
                style="font-variant-caps:normal;font-variant-east-asian:normal;font-variant-ligatures:normal;font-variant-numeric:normal"
                id="path10"/>
      </g>
    </mask>
  </defs>
  <metadata
          id="metadata17">
    <rdf:RDF>
      <cc:Work
              rdf:about="">
        <dc:format>image/svg+xml</dc:format>
        <dc:type
                rdf:resource="http://purl.org/dc/dcmitype/StillImage"/>
        <dc:title/>
      </cc:Work>
    </rdf:RDF>
  </metadata>
  <g
          transform="matrix(0.97501382,0,0,0.97501846,0.26458749,0.26458713)"
          stroke-width="0.26458"
          id="g23">
    <path
            d="m 1.3579,4.2647 h 18.373 v 12.441 H 1.3579 Z M 2.9634,0 h 15.24 a 2.9633,2.9633 0 0 1 2.9633,2.9633 v 15.24 a 2.9633,2.9633 0 0 1 -2.9633,2.9633 H 2.9634 A 2.9633,2.9633 0 0 1 1e-4,18.2033 V 2.9633 A 2.9633,2.9633 0 0 1 2.9634,0 Z"
            fill="#ffffff"
            id="path19"/>
    <path
            style="fill:url(#linearGradient861)"
            x="0"
            y="0"
            width="21.166666"
            height="21.166666"
            d="m 2.9633,0 h 15.24 a 2.9633,2.9633 45 0 1 2.9633,2.9633 v 15.24 a 2.9633,2.9633 135 0 1 -2.9633,2.9633 H 2.9633 A 2.9633,2.9633 45 0 1 0,18.2033 V 2.9633 A 2.9633,2.9633 135 0 1 2.9633,0 Z"
            fill="url(#linearGradient861)"
            mask="url(#mask-powermask-path-effect894)"
            id="path21"/>
  </g>
</svg>
